<?xml version="1.0" encoding="utf-8"?>
<!-- Generator: Adobe Illustrator 15.0.0, SVG Export Plug-In . SVG Version: 6.00 Build 0)  -->
<!DOCTYPE svg PUBLIC "-//W3C//DTD SVG 1.1//EN" "http://www.w3.org/Graphics/SVG/1.1/DTD/svg11.dtd">
<svg version="1.1" id="Github" xmlns="http://www.w3.org/2000/svg" xmlns:xlink="http://www.w3.org/1999/xlink" x="0px" y="0px"
	 width="612px" height="792px" viewBox="0 0 612 792" enable-background="new 0 0 612 792" xml:space="preserve">
<path fill="#FFFFFF" d="M403.308,436.056c-21.971,0-39.779,24.694-39.779,55.049c0,30.417,17.809,55.111,39.779,55.111
	c21.972,0,39.78-24.694,39.78-55.111C443.058,460.75,425.279,436.056,403.308,436.056z M541.804,292.756
	c4.56-11.169,4.743-74.634-19.431-135.436c0,0-55.417,6.089-139.261,63.648c-17.596-4.896-47.369-7.283-77.082-7.283
	c-29.773,0-59.517,2.387-77.112,7.283C145.044,163.409,89.627,157.32,89.627,157.32c-24.144,60.802-23.898,124.267-19.4,135.436
	C41.83,323.601,24.48,360.657,24.48,411.208c0,219.892,182.468,223.411,228.49,223.411c10.465,0,31.151,0.061,53.06,0.061
	c21.879,0,42.596-0.061,53-0.061c46.083,0,228.489-3.52,228.489-223.411C587.52,360.657,570.2,323.601,541.804,292.756z
	 M306.856,607.599h-1.713c-115.393,0-205.295-13.739-205.295-125.919c0-26.897,9.486-51.806,32.039-72.491
	c37.546-34.486,101.133-16.249,173.257-16.249c0.306,0,0.612,0,0.887,0c0.307,0,0.551,0,0.826,0
	c72.125,0,135.742-18.237,173.318,16.249c22.491,20.686,31.978,45.594,31.978,72.491
	C512.152,593.859,422.28,607.599,306.856,607.599z M208.723,436.056c-21.971,0-39.78,24.694-39.78,55.049
	c0,30.417,17.81,55.111,39.78,55.111c22.001,0,39.811-24.694,39.811-55.111C248.533,460.75,230.724,436.056,208.723,436.056z"/>
</svg>
