<?xml version="1.0" encoding="utf-8"?>
<!-- Generator: Adobe Illustrator 15.0.0, SVG Export Plug-In . SVG Version: 6.00 Build 0)  -->
<!DOCTYPE svg PUBLIC "-//W3C//DTD SVG 1.1//EN" "http://www.w3.org/Graphics/SVG/1.1/DTD/svg11.dtd">
<svg version="1.1" id="Twitter" xmlns="http://www.w3.org/2000/svg" xmlns:xlink="http://www.w3.org/1999/xlink" x="0px" y="0px"
	 width="612px" height="792px" viewBox="0 0 612 792" enable-background="new 0 0 612 792" xml:space="preserve">
<path fill="#FFFFFF" d="M529.869,281.127c0.245,4.958,0.337,9.976,0.337,14.933c0,152.693-116.188,328.705-328.644,328.705
	c-65.27,0-125.949-19.125-177.082-51.929c9.058,1.071,18.238,1.622,27.54,1.622c54.162,0,103.948-18.482,143.453-49.419
	c-50.521-0.948-93.208-34.303-107.896-80.202c7.038,1.315,14.29,2.02,21.726,2.02c10.557,0,20.777-1.377,30.447-4.009
	C86.904,432.2,47.093,385.535,47.093,329.537c0-0.489,0-0.948,0-1.438c15.576,8.66,33.416,13.862,52.326,14.474
	c-30.998-20.747-51.408-56.059-51.408-96.176c0-21.145,5.692-41.004,15.667-58.079c56.946,69.921,142.106,115.882,238.099,120.717
	c-1.958-8.476-2.968-17.258-2.968-26.347c0-63.77,51.683-115.454,115.484-115.454c33.232,0,63.251,13.984,84.334,36.445
	c26.285-5.202,51.01-14.811,73.349-28.03c-8.63,26.958-26.959,49.603-50.796,63.893c23.378-2.815,45.594-8.966,66.34-18.176
	C572.036,244.561,552.452,264.879,529.869,281.127z"/>
</svg>
