<?xml version="1.0" encoding="utf-8"?>
<!-- Generator: Adobe Illustrator 15.0.0, SVG Export Plug-In . SVG Version: 6.00 Build 0)  -->
<!DOCTYPE svg PUBLIC "-//W3C//DTD SVG 1.1//EN" "http://www.w3.org/Graphics/SVG/1.1/DTD/svg11.dtd">
<svg version="1.1" id="Facebook" xmlns="http://www.w3.org/2000/svg" xmlns:xlink="http://www.w3.org/1999/xlink" x="0px" y="0px"
	 width="612px" height="792px" viewBox="0 0 612 792" enable-background="new 0 0 612 792" xml:space="preserve">
<path fill="#FFFFFF" d="M520.2,120.6H91.8c-33.66,0-61.2,27.54-61.2,61.2v428.4c0,33.69,27.54,61.2,61.2,61.2H306V457.2h-61.2
	v-75.735H306v-62.73c0-66.218,37.087-112.73,115.239-112.73l55.172,0.062v79.713h-36.628c-30.416,0-41.983,22.828-41.983,44.003
	v51.714h78.581L459,457.2h-61.2v214.2h122.4c33.66,0,61.2-27.51,61.2-61.2V181.8C581.4,148.14,553.86,120.6,520.2,120.6z"/>
</svg>
